<?xml version="1.0" standalone="no"?>
<!DOCTYPE svg PUBLIC "-//W3C//DTD SVG 20010904//EN"
 "http://www.w3.org/TR/2001/REC-SVG-20010904/DTD/svg10.dtd">
<svg version="1.0" xmlns="http://www.w3.org/2000/svg"
 width="100.000000pt" height="100.000000pt" viewBox="0 0 100.000000 100.000000"
 preserveAspectRatio="xMidYMid meet">
<metadata>
Created by potrace 1.11, written by Peter Selinger 2001-2013
</metadata>
<g transform="translate(0.000000,100.000000) scale(0.100000,-0.100000)"
fill="#000000" stroke="none">
<path d="M369 957 c-81 -28 -132 -65 -170 -125 -41 -66 -51 -104 -55 -214 -3
-75 -8 -107 -25 -140 -37 -73 -10 -166 63 -214 16 -10 35 -34 43 -51 40 -95
176 -187 275 -187 99 0 211 74 265 173 14 25 41 56 59 68 38 24 76 95 76 139
0 16 -10 49 -21 74 -15 33 -22 70 -24 140 -5 168 -69 272 -205 332 -71 31
-199 33 -281 5z m74 -373 l56 -57 57 57 c33 33 62 55 70 52 22 -9 17 -19 -42
-80 l-56 -58 53 -53 c30 -30 54 -59 54 -66 0 -28 -24 -16 -79 37 l-58 57 -32
-34 c-67 -71 -84 -83 -100 -70 -12 10 -5 22 47 71 l61 59 -62 63 c-33 34 -59
65 -56 70 11 18 35 5 87 -48z"/>
</g>
</svg>
