<?xml version="1.0" standalone="no"?>
<!DOCTYPE svg PUBLIC "-//W3C//DTD SVG 20010904//EN"
 "http://www.w3.org/TR/2001/REC-SVG-20010904/DTD/svg10.dtd">
<svg version="1.0" xmlns="http://www.w3.org/2000/svg"
 width="600.000000pt" height="600.000000pt" viewBox="0 0 600.000000 600.000000"
 preserveAspectRatio="xMidYMid meet">
<metadata>
Created by potrace 1.11, written by Peter Selinger 2001-2013
</metadata>
<g transform="translate(0.000000,600.000000) scale(0.100000,-0.100000)"
fill="#000000" stroke="none">
<path d="M1255 5914 c-176 -32 -327 -84 -466 -162 -371 -209 -624 -567 -698
-989 -19 -104 -19 -173 -17 -1793 1 -927 6 -1703 10 -1725 30 -157 67 -269
137 -410 94 -190 217 -340 407 -496 26 -21 170 -108 231 -138 65 -33 240 -95
301 -107 173 -32 181 -32 1880 -30 927 1 1701 5 1720 10 165 36 289 77 394
129 365 182 621 489 735 882 48 163 45 63 47 1865 2 1097 -1 1709 -7 1755 -16
105 -16 105 -33 173 -125 477 -485 850 -961 995 -45 14 -77 21 -195 44 -19 4
-793 8 -1720 9 -1423 2 -1697 0 -1765 -12z"/>
</g>
</svg>
