<?xml version="1.0" standalone="no"?>
<!DOCTYPE svg PUBLIC "-//W3C//DTD SVG 20010904//EN"
 "http://www.w3.org/TR/2001/REC-SVG-20010904/DTD/svg10.dtd">
<svg version="1.0" xmlns="http://www.w3.org/2000/svg"
 width="256.000000pt" height="256.000000pt" viewBox="0 0 256.000000 256.000000"
 preserveAspectRatio="xMidYMid meet">
<metadata>
Created by potrace 1.11, written by Peter Selinger 2001-2013
</metadata>
<g transform="translate(0.000000,256.000000) scale(0.100000,-0.100000)"
fill="#000000" stroke="none">
<path d="M304 2535 c-53 -22 -57 -35 -50 -151 12 -192 65 -461 134 -679 l28
-90 -33 -45 c-112 -150 -234 -385 -296 -570 -30 -88 -87 -295 -87 -314 0 -7
58 2 72 10 4 3 50 8 103 11 l94 6 -9 -32 c-6 -17 -15 -46 -20 -63 -15 -50 -13
-54 38 -73 209 -79 592 -251 592 -266 0 -17 83 -85 123 -100 25 -10 44 -25 49
-40 40 -106 233 -157 369 -96 54 24 109 76 109 102 0 7 24 25 53 38 50 24 97
61 114 91 4 7 40 29 78 49 76 38 376 167 493 212 39 16 72 33 72 40 0 7 -9 38
-20 69 -17 50 -17 58 -4 63 20 8 155 -4 206 -17 22 -6 42 -10 44 -8 2 2 -1 20
-6 39 -5 19 -12 48 -15 66 -12 70 -107 339 -157 441 -56 116 -135 249 -197
331 l-38 52 29 92 c24 79 58 202 75 272 4 19 35 200 47 277 3 21 9 83 12 138
7 110 2 123 -51 146 -36 15 -69 4 -196 -68 -155 -86 -291 -191 -434 -333 l-90
-90 -60 13 c-122 26 -336 22 -442 -10 -6 -2 -44 31 -84 72 -166 168 -305 274
-489 372 -95 51 -121 58 -156 43z"/>
</g>
</svg>
